<mxfile host="app.diagrams.net" agent="Mozilla/5.0 (Windows NT 10.0; Win64; x64) AppleWebKit/537.36 (KHTML, like Gecko) Chrome/133.0.0.0 Safari/537.36" version="26.0.14">
  <diagram name="Page-1" id="Rb2IhAHiVmSiqrVG7yFq">
    <mxGraphModel dx="1235" dy="655" grid="1" gridSize="10" guides="1" tooltips="1" connect="1" arrows="1" fold="1" page="1" pageScale="1" pageWidth="850" pageHeight="1100" math="0" shadow="0">
      <root>
        <mxCell id="0" />
        <mxCell id="1" parent="0" />
        <mxCell id="2NXiW0guvJe2bkPRp_MS-6" value="" style="edgeStyle=orthogonalEdgeStyle;rounded=0;orthogonalLoop=1;jettySize=auto;html=1;" edge="1" parent="1" source="2NXiW0guvJe2bkPRp_MS-2" target="2NXiW0guvJe2bkPRp_MS-5">
          <mxGeometry relative="1" as="geometry" />
        </mxCell>
        <mxCell id="2NXiW0guvJe2bkPRp_MS-2" value="Initial seed&lt;div&gt;x&lt;sub&gt;o&lt;/sub&gt;&lt;/div&gt;" style="shape=parallelogram;perimeter=parallelogramPerimeter;whiteSpace=wrap;html=1;fixedSize=1;" vertex="1" parent="1">
          <mxGeometry x="365" y="230" width="120" height="60" as="geometry" />
        </mxCell>
        <mxCell id="2NXiW0guvJe2bkPRp_MS-17" style="edgeStyle=orthogonalEdgeStyle;rounded=0;orthogonalLoop=1;jettySize=auto;html=1;entryX=1;entryY=0.5;entryDx=0;entryDy=0;" edge="1" parent="1" source="2NXiW0guvJe2bkPRp_MS-5" target="2NXiW0guvJe2bkPRp_MS-7">
          <mxGeometry relative="1" as="geometry" />
        </mxCell>
        <mxCell id="2NXiW0guvJe2bkPRp_MS-18" style="edgeStyle=orthogonalEdgeStyle;rounded=0;orthogonalLoop=1;jettySize=auto;html=1;entryX=0;entryY=0.5;entryDx=0;entryDy=0;" edge="1" parent="1" source="2NXiW0guvJe2bkPRp_MS-5" target="2NXiW0guvJe2bkPRp_MS-8">
          <mxGeometry relative="1" as="geometry" />
        </mxCell>
        <mxCell id="2NXiW0guvJe2bkPRp_MS-5" value="&lt;span style=&quot;color: rgb(0, 0, 0); background-color: rgb(251, 251, 251); float: none; display: inline !important;&quot;&gt;normalized initial seed&lt;/span&gt;&lt;div style=&quot;color: rgb(0, 0, 0); background-color: rgb(251, 251, 251);&quot;&gt;t&amp;nbsp;âˆˆ [0, 1)&lt;/div&gt;" style="whiteSpace=wrap;html=1;" vertex="1" parent="1">
          <mxGeometry x="340" y="320" width="170" height="60" as="geometry" />
        </mxCell>
        <mxCell id="2NXiW0guvJe2bkPRp_MS-14" value="" style="edgeStyle=orthogonalEdgeStyle;rounded=0;orthogonalLoop=1;jettySize=auto;html=1;" edge="1" parent="1" source="2NXiW0guvJe2bkPRp_MS-7" target="2NXiW0guvJe2bkPRp_MS-11">
          <mxGeometry relative="1" as="geometry" />
        </mxCell>
        <mxCell id="2NXiW0guvJe2bkPRp_MS-7" value="l (logistic value)" style="rounded=0;whiteSpace=wrap;html=1;" vertex="1" parent="1">
          <mxGeometry x="260" y="410" width="120" height="60" as="geometry" />
        </mxCell>
        <mxCell id="2NXiW0guvJe2bkPRp_MS-13" value="" style="edgeStyle=orthogonalEdgeStyle;rounded=0;orthogonalLoop=1;jettySize=auto;html=1;" edge="1" parent="1" source="2NXiW0guvJe2bkPRp_MS-8" target="2NXiW0guvJe2bkPRp_MS-12">
          <mxGeometry relative="1" as="geometry" />
        </mxCell>
        <mxCell id="2NXiW0guvJe2bkPRp_MS-8" value="t (tent value)" style="rounded=0;whiteSpace=wrap;html=1;" vertex="1" parent="1">
          <mxGeometry x="470" y="410" width="120" height="60" as="geometry" />
        </mxCell>
        <mxCell id="2NXiW0guvJe2bkPRp_MS-15" style="edgeStyle=orthogonalEdgeStyle;rounded=0;orthogonalLoop=1;jettySize=auto;html=1;entryX=0;entryY=0.5;entryDx=0;entryDy=0;" edge="1" parent="1" source="2NXiW0guvJe2bkPRp_MS-11" target="2NXiW0guvJe2bkPRp_MS-7">
          <mxGeometry relative="1" as="geometry">
            <Array as="points">
              <mxPoint x="240" y="540" />
              <mxPoint x="240" y="440" />
            </Array>
          </mxGeometry>
        </mxCell>
        <mxCell id="2NXiW0guvJe2bkPRp_MS-23" value="" style="edgeStyle=orthogonalEdgeStyle;rounded=0;orthogonalLoop=1;jettySize=auto;html=1;" edge="1" parent="1" source="2NXiW0guvJe2bkPRp_MS-11" target="2NXiW0guvJe2bkPRp_MS-22">
          <mxGeometry relative="1" as="geometry" />
        </mxCell>
        <mxCell id="2NXiW0guvJe2bkPRp_MS-11" value="Tent Map" style="shape=process;whiteSpace=wrap;html=1;backgroundOutline=1;" vertex="1" parent="1">
          <mxGeometry x="260" y="510" width="120" height="60" as="geometry" />
        </mxCell>
        <mxCell id="2NXiW0guvJe2bkPRp_MS-16" style="edgeStyle=orthogonalEdgeStyle;rounded=0;orthogonalLoop=1;jettySize=auto;html=1;entryX=1;entryY=0.5;entryDx=0;entryDy=0;" edge="1" parent="1" source="2NXiW0guvJe2bkPRp_MS-12" target="2NXiW0guvJe2bkPRp_MS-8">
          <mxGeometry relative="1" as="geometry">
            <Array as="points">
              <mxPoint x="610" y="540" />
              <mxPoint x="610" y="440" />
            </Array>
          </mxGeometry>
        </mxCell>
        <mxCell id="2NXiW0guvJe2bkPRp_MS-24" value="" style="edgeStyle=orthogonalEdgeStyle;rounded=0;orthogonalLoop=1;jettySize=auto;html=1;" edge="1" parent="1" source="2NXiW0guvJe2bkPRp_MS-12" target="2NXiW0guvJe2bkPRp_MS-22">
          <mxGeometry relative="1" as="geometry" />
        </mxCell>
        <mxCell id="2NXiW0guvJe2bkPRp_MS-12" value="Logistics Map" style="shape=process;whiteSpace=wrap;html=1;backgroundOutline=1;" vertex="1" parent="1">
          <mxGeometry x="470" y="510" width="120" height="60" as="geometry" />
        </mxCell>
        <mxCell id="2NXiW0guvJe2bkPRp_MS-27" value="" style="edgeStyle=orthogonalEdgeStyle;rounded=0;orthogonalLoop=1;jettySize=auto;html=1;" edge="1" parent="1" source="2NXiW0guvJe2bkPRp_MS-19" target="2NXiW0guvJe2bkPRp_MS-26">
          <mxGeometry relative="1" as="geometry" />
        </mxCell>
        <mxCell id="2NXiW0guvJe2bkPRp_MS-19" value="mix function 1" style="shape=process;whiteSpace=wrap;html=1;backgroundOutline=1;" vertex="1" parent="1">
          <mxGeometry x="365" y="600" width="120" height="60" as="geometry" />
        </mxCell>
        <mxCell id="2NXiW0guvJe2bkPRp_MS-25" value="" style="edgeStyle=orthogonalEdgeStyle;rounded=0;orthogonalLoop=1;jettySize=auto;html=1;" edge="1" parent="1" source="2NXiW0guvJe2bkPRp_MS-22" target="2NXiW0guvJe2bkPRp_MS-19">
          <mxGeometry relative="1" as="geometry" />
        </mxCell>
        <mxCell id="2NXiW0guvJe2bkPRp_MS-22" value="" style="ellipse;whiteSpace=wrap;html=1;aspect=fixed;" vertex="1" parent="1">
          <mxGeometry x="405" y="520" width="40" height="40" as="geometry" />
        </mxCell>
        <mxCell id="2NXiW0guvJe2bkPRp_MS-26" value="chaos value" style="shape=parallelogram;perimeter=parallelogramPerimeter;whiteSpace=wrap;html=1;fixedSize=1;" vertex="1" parent="1">
          <mxGeometry x="365" y="700" width="120" height="60" as="geometry" />
        </mxCell>
      </root>
    </mxGraphModel>
  </diagram>
</mxfile>
